# xmcd
#
# Track frame offsets:
#	150
#	13802
#	27535
#	39378
#	52571
#	66412
#	83898
#	96578
#	108340
#	117132
#	138857
#	158341
#	171210
#	184349
#	197812
#
# Disc length: 2820 seconds
#
# Revision: 0
# Processed by: cddbd v1.5.2PL0 Copyright (c) Steve Scherf et al.
# Submitted via: EasyCDDAExtractor 16.0.8.2
#
DISCID=c40b020f
DTITLE=Συλλογικός δίσκος - Τα καλύτερα ξένα τραγούδια 1967
DYEAR=1967
DGENRE=Ξένη
TTITLE0=Jefferson Airplane - Somebody to love
TTITLE1=Scott McKenzie - San Francisco
TTITLE2=Herman Hermits - It's a kind of hush
TTITLE3=Neil Diamond - Girl, you'll be a woman soon
TTITLE4=Van Morrison - Brown eyed girl
TTITLE5=Al Bano - Nel sole
TTITLE6=Lulu - To sir with love
TTITLE7=David McWilliams - The days of pearly spencer
TTITLE8=Box Tops - The letter
TTITLE9=Adamo - Inch allah
TTITLE10=Dik Dik - Senza luce
TTITLE11=The Grass Roots - Let's live for today
TTITLE12=Classics Iv - Spooky
TTITLE13=The Mamas and The Papas - Dedicated to the one i love
TTITLE14=Adamo - Insieme
EXTD=
EXTT0=
EXTT1=
EXTT2=
EXTT3=
EXTT4=
EXTT5=
EXTT6=
EXTT7=
EXTT8=
EXTT9=
EXTT10=
EXTT11=
EXTT12=
EXTT13=
EXTT14=
PLAYORDER=
